<?xml version="1.0" encoding="utf-8"?>
<!-- Generator: Adobe Illustrator 16.0.0, SVG Export Plug-In . SVG Version: 6.00 Build 0)  -->
<!DOCTYPE svg PUBLIC "-//W3C//DTD SVG 1.1//EN" "http://www.w3.org/Graphics/SVG/1.1/DTD/svg11.dtd">
<svg version="1.1" id="Calque_1" xmlns="http://www.w3.org/2000/svg" xmlns:xlink="http://www.w3.org/1999/xlink" x="0px" y="0px"
	 width="484.91px" height="166.057px" viewBox="0 0 484.91 166.057" enable-background="new 0 0 484.91 166.057"
	 xml:space="preserve">
<g>
	<path fill="#4C555F" d="M32.863,32.407l-5.866-9.924h1.956l3.687,6.311c0.52,0.891,1.065,2.079,1.065,2.079h0.049
		c0,0,0.52-1.164,1.065-2.079l3.687-6.311h1.931l-5.842,9.924v7.475h-1.732V32.407z"/>
	<path fill="#4C555F" d="M51.824,22.185c4.925,0,8.86,3.886,8.86,8.885c0,5.099-3.935,9.108-8.86,9.108s-8.86-4.009-8.86-9.108
		C42.964,26.071,46.899,22.185,51.824,22.185 M51.824,38.594c3.911,0,7.079-3.267,7.079-7.524c0-4.158-3.168-7.301-7.079-7.301
		c-3.935,0-7.078,3.143-7.078,7.301C44.746,35.327,47.889,38.594,51.824,38.594"/>
	<path fill="#4C555F" d="M65.564,22.482h1.732v11.311c0,2.994,1.931,4.801,4.926,4.801c2.994,0,4.949-1.807,4.949-4.851V22.482
		h1.708v11.335c0,3.861-2.697,6.361-6.632,6.361c-3.96,0-6.683-2.5-6.683-6.361V22.482z"/>
	<path fill="#4C555F" d="M84.946,22.482h5.148c1.782,0,2.574,0.173,3.267,0.471c1.634,0.717,2.624,2.376,2.624,4.479
		c0,2.351-1.337,4.158-3.292,4.703v0.049c0,0,0.173,0.223,0.446,0.693l3.786,7.004H94.97l-3.935-7.325h-4.381v7.325h-1.708V22.482z
		 M90.787,31.021c2.104,0,3.44-1.361,3.44-3.539c0-1.436-0.569-2.5-1.584-3.044c-0.519-0.273-1.138-0.421-2.475-0.421h-3.514v7.004
		H90.787z"/>
	<path fill="#4C555F" d="M109.354,36.639c0,0,1.807,1.906,4.554,1.906c1.905,0,3.465-1.139,3.465-3.02
		c0-4.381-8.687-3.267-8.687-8.662c0-2.5,2.202-4.678,5.42-4.678c3.019,0,4.653,1.683,4.653,1.683l-0.842,1.436
		c0,0-1.534-1.485-3.811-1.485c-2.228,0-3.663,1.46-3.663,2.994c0,4.134,8.687,2.946,8.687,8.663c0,2.599-2.005,4.702-5.272,4.702
		c-3.564,0-5.519-2.227-5.519-2.227L109.354,36.639z"/>
	<path fill="#4C555F" d="M124.181,22.482h6.015c3.118,0,5.37,2.03,5.37,5.247c0,3.243-2.252,5.321-5.37,5.321h-4.306v6.831h-1.709
		V22.482z M129.973,31.516c2.327,0,3.836-1.411,3.836-3.787c0-2.351-1.509-3.713-3.811-3.713h-4.108v7.5H129.973z"/>
	<polygon fill="#4C555F" points="140.222,22.482 150.022,22.482 150.022,24.017 141.93,24.017 141.93,30.353 148.538,30.353 
		148.538,31.887 141.93,31.887 141.93,38.346 150.469,38.346 150.469,39.881 140.222,39.881 	"/>
	<path fill="#4C555F" d="M155.594,22.482h1.658l8.885,12.523c0.594,0.867,1.436,2.352,1.436,2.352h0.049
		c0,0-0.148-1.436-0.148-2.352V22.482h1.708v17.399h-1.659l-8.885-12.524c-0.594-0.866-1.435-2.351-1.435-2.351h-0.05
		c0,0,0.149,1.436,0.149,2.351v12.524h-1.708V22.482z"/>
	<path fill="#4C555F" d="M175.472,22.482h5.618c5.223,0,8.737,3.192,8.737,8.687c0,5.544-3.514,8.712-8.737,8.712h-5.618V22.482z
		 M180.917,38.347c4.282,0,7.128-2.524,7.128-7.177c0-4.629-2.871-7.153-7.128-7.153h-3.737v14.33H180.917z"/>
	<path fill="#4C555F" d="M274.834,22.482h1.782l4.554,10.222c0.396,0.89,0.841,2.128,0.841,2.128h0.05c0,0,0.471-1.238,0.866-2.128
		l4.553-10.222h1.759l1.386,17.399h-1.708l-0.965-12.177c-0.074-0.94-0.05-2.426-0.05-2.426h-0.049c0,0-0.521,1.535-0.916,2.426
		l-4.084,8.935h-1.608l-4.084-8.935c-0.396-0.866-0.94-2.475-0.94-2.475h-0.05c0,0,0.025,1.535-0.049,2.475l-0.966,12.177h-1.707
		L274.834,22.482z"/>
	<path fill="#4C555F" d="M304.957,34.337h-7.004l-1.979,5.544h-1.808l6.386-17.399h1.832l6.385,17.399h-1.807L304.957,34.337z
		 M301.443,24.289c0,0-0.372,1.436-0.669,2.252l-2.326,6.311h5.989l-2.276-6.311c-0.298-0.816-0.669-2.252-0.669-2.252H301.443z"/>
	<path fill="#4C555F" d="M312.855,22.482h1.658l8.886,12.523c0.594,0.867,1.435,2.352,1.435,2.352h0.05c0,0-0.148-1.436-0.148-2.352
		V22.482h1.708v17.399h-1.658l-8.886-12.524c-0.594-0.866-1.436-2.351-1.436-2.351h-0.049c0,0,0.148,1.436,0.148,2.351v12.524
		h-1.708V22.482z"/>
	<path fill="#4C555F" d="M341.321,34.337h-7.004l-1.979,5.544h-1.808l6.386-17.399h1.832l6.385,17.399h-1.807L341.321,34.337z
		 M337.808,24.289c0,0-0.372,1.436-0.669,2.252l-2.326,6.311h5.989l-2.277-6.311c-0.297-0.816-0.668-2.252-0.668-2.252H337.808z"/>
	<path fill="#4C555F" d="M356.695,22.185c4.034,0,6.187,2.03,6.187,2.03l-0.915,1.287c0,0-2.029-1.733-5.197-1.733
		c-4.208,0-7.053,3.243-7.053,7.375c0,4.282,2.944,7.45,6.904,7.45c3.391,0,5.471-2.549,5.471-2.549V33.1h-2.972v-1.535h4.604v8.316
		h-1.584V38.57c0-0.372,0.025-0.743,0.025-0.743h-0.05c0,0-2.005,2.351-5.668,2.351c-4.752,0-8.514-3.836-8.514-9.009
		C347.934,26.145,351.695,22.185,356.695,22.185"/>
	<polygon fill="#4C555F" points="369.099,22.482 378.899,22.482 378.899,24.017 370.807,24.017 370.807,30.353 377.415,30.353 
		377.415,31.887 370.807,31.887 370.807,38.346 379.345,38.346 379.345,39.881 369.099,39.881 	"/>
	<path fill="#4C555F" d="M385.312,22.482h1.782l4.554,10.222c0.396,0.89,0.841,2.128,0.841,2.128h0.05c0,0,0.471-1.238,0.866-2.128
		l4.553-10.222h1.759l1.386,17.399h-1.708l-0.965-12.177c-0.074-0.94-0.05-2.426-0.05-2.426h-0.049c0,0-0.521,1.535-0.916,2.426
		l-4.084,8.935h-1.608l-4.084-8.935c-0.396-0.866-0.94-2.475-0.94-2.475h-0.05c0,0,0.025,1.535-0.049,2.475l-0.966,12.177h-1.707
		L385.312,22.482z"/>
	<polygon fill="#4C555F" points="406.848,22.482 416.648,22.482 416.648,24.017 408.556,24.017 408.556,30.353 415.164,30.353 
		415.164,31.887 408.556,31.887 408.556,38.346 417.094,38.346 417.094,39.881 406.848,39.881 	"/>
	<path fill="#4C555F" d="M422.221,22.482h1.658l8.886,12.523c0.594,0.867,1.435,2.352,1.435,2.352h0.05c0,0-0.148-1.436-0.148-2.352
		V22.482h1.708v17.399h-1.658l-8.886-12.524c-0.594-0.866-1.436-2.351-1.436-2.351h-0.049c0,0,0.148,1.436,0.148,2.351v12.524
		h-1.708V22.482z"/>
	<polygon fill="#4C555F" points="446.008,24.017 439.746,24.017 439.746,22.482 453.953,22.482 453.953,24.017 447.716,24.017 
		447.716,39.881 446.008,39.881 	"/>
	<path fill="#BC1413" d="M242.608,21.774c5.167,0,9.294,4.076,9.294,9.32c0,5.347-4.127,9.554-9.294,9.554
		c-5.166,0-9.293-4.207-9.293-9.554C233.315,25.851,237.442,21.774,242.608,21.774"/>
	<path fill="#4C555F" d="M109.296,58.229h4.034c1.463,0,2.65,1.186,2.65,2.65v9.747c0,3.065-0.278,5.573-0.278,5.573h0.278
		c3.343-10.588,11.145-18.667,22.151-18.667c0.446,0,0.885,0.022,1.296,0.056c1.389,0.113,2.465,1.252,2.465,2.645v4.138
		c0,1.515-1.266,2.701-2.78,2.646c-0.23-0.008-0.465-0.013-0.703-0.013c-9.891,0-17.275,7.802-20.34,18.111
		c-1.393,4.457-1.95,9.195-1.95,13.652v26.884c0,1.464-1.186,2.65-2.65,2.65h-4.173c-1.463,0-2.65-1.187-2.65-2.65V60.878
		C106.646,59.415,107.833,58.229,109.296,58.229"/>
	<path fill="#4C555F" d="M182.569,56.557c16.995,0,22.846,13.233,22.846,13.233h0.279c0,0-0.279-2.369-0.279-5.294V24.013
		c0-1.463,1.187-2.65,2.65-2.65h4.173c1.464,0,2.65,1.187,2.65,2.65V125.65c0,1.464-1.186,2.65-2.65,2.65h-3.894
		c-1.463,0-2.65-1.187-2.65-2.65v-4.734c0-3.063,0.278-5.015,0.278-5.015h-0.278c0,0-5.711,14.071-24.101,14.071
		c-18.807,0-30.509-15.047-30.509-36.777C151.084,71.042,164.18,56.557,182.569,56.557 M182.986,121.475
		c11.703,0,22.708-8.36,22.708-28.279c0-14.21-7.244-28.141-22.29-28.141c-12.398,0-22.568,10.447-22.568,28.141
		C160.836,110.469,169.892,121.475,182.986,121.475"/>
	<path fill="#4C555F" d="M240.383,58.229h4.174c1.463,0,2.649,1.186,2.649,2.65v64.772c0,1.464-1.187,2.65-2.649,2.65h-4.174
		c-1.463,0-2.65-1.187-2.65-2.65V60.878C237.733,59.415,238.92,58.229,240.383,58.229"/>
	<path fill="#4C555F" d="M294.292,149.058c13.652,0,24.518-6.409,24.518-22.013v-6.405c0-2.648,0.279-5.018,0.279-5.018h-0.279
		c-4.179,7.802-11.283,12.261-22.149,12.261c-18.807,0-31.206-14.906-31.206-35.942s11.563-35.384,30.37-35.384
		c18.529,0,23.125,11.702,23.125,11.702h0.279c0,0-0.14-0.838-0.14-2.369v-5.011c0-1.464,1.187-2.65,2.65-2.65h3.895
		c1.464,0,2.65,1.186,2.65,2.65v65.75c0,22.291-16.438,30.928-33.575,30.928c-7.125,0-14.25-1.625-20.516-4.398
		c-1.369-0.605-1.993-2.203-1.361-3.562l1.378-2.968c0.607-1.307,2.141-1.897,3.457-1.312
		C280.912,146.754,287.207,149.058,294.292,149.058 M318.949,91.94c0-20.478-9.751-26.748-22.149-26.748
		c-13.653,0-21.594,9.892-21.594,26.609c0,16.718,9.055,27.583,22.986,27.583C309.198,119.385,318.949,112.559,318.949,91.94"/>
	<path fill="#4C555F" d="M380.8,56.556c19.365,0,29.257,14.907,29.257,32.319c0,0.658-0.044,1.556-0.097,2.401
		c-0.086,1.394-1.247,2.475-2.645,2.475h-48.484c-1.578,0-2.806,1.379-2.647,2.948c1.621,16.089,13.312,24.775,26.985,24.775
		c8.912,0,15.735-4.109,19.066-6.612c1.249-0.939,3.038-0.561,3.838,0.781l1.568,2.631c0.685,1.148,0.417,2.634-0.645,3.446
		c-3.58,2.735-12.268,8.252-24.107,8.252c-20.895,0-36.638-15.047-36.638-36.639C346.252,70.348,361.854,56.556,380.8,56.556
		 M397.558,85.949c1.601,0,2.844-1.422,2.642-3.01c-1.593-12.556-9.975-18.444-19.677-18.444c-10.743,0-20.193,6.223-23.396,18.127
		c-0.449,1.675,0.846,3.326,2.578,3.326H397.558z"/>
	<path fill="#4C555F" d="M425.887,115.253c0.899-1.189,2.595-1.374,3.759-0.441c3.118,2.499,9.691,6.663,18.857,6.663
		c7.522,0,14.07-3.763,14.07-11.145c0-15.324-37.753-11.563-37.753-34.41c0-12.538,11.285-19.364,23.963-19.364
		c10.5,0,16.984,3.873,19.855,6.112c1.046,0.815,1.297,2.287,0.618,3.426l-1.626,2.727c-0.785,1.318-2.517,1.708-3.771,0.827
		c-2.695-1.895-7.853-4.594-15.356-4.594c-7.104,0-13.931,3.064-13.931,10.866c0,15.462,37.753,11.285,37.753,34.41
		c0,11.424-9.892,19.643-23.962,19.643c-12.534,0-20.674-5.532-24.084-8.437c-1.074-0.915-1.252-2.495-0.401-3.622L425.887,115.253z
		"/>
	<path fill="#BC1413" d="M11.334,92.618c-0.32,17.61,10.743,32.504,26.709,37.659c0.941,0.305,1.906-0.421,1.924-1.409l0.114-6.284
		c0.011-0.638-0.391-1.196-0.988-1.417c-11.83-4.372-19.735-15.432-19.5-28.399c0.3-16.487,13.795-29.604,31.326-29.286
		C68.87,63.808,82.4,77.416,82.102,93.903c-0.192,10.576-8.327,22.395-18.534,26.777c-0.477,0.205-0.734,0.729-0.744,1.249
		l-0.122,6.716c-0.021,1.134,1.121,1.741,2.188,1.355c14.608-5.271,25.199-20.969,25.471-35.947
		c0.393-21.633-16.903-39.236-39.296-39.643C29.107,54.012,11.728,70.986,11.334,92.618"/>
	<path fill="#4C555F" d="M66.373,144.616H35.739c-1.276,0-2.311-1.035-2.311-2.312v-3.868c0-1.276,1.034-2.312,2.311-2.312h30.634
		c1.276,0,2.312,1.035,2.312,2.312v3.868C68.685,143.581,67.648,144.616,66.373,144.616"/>
</g>
</svg>
